<?xml version="1.0" encoding="UTF-8"?> <svg xmlns="http://www.w3.org/2000/svg" width="103" height="138" viewBox="0 0 103 138" fill="none"><path d="M51.4697 72.5L49.7865 73.5802L49.7865 73.5802L51.4697 72.5ZM53.2763 1.1419C52.8024 0.144167 51.6094 -0.280474 50.6116 0.193441L34.3526 7.91634C33.3548 8.39025 32.9302 9.58326 33.4041 10.581C33.878 11.5787 35.071 12.0034 36.0688 11.5295L50.5213 4.66466L57.3861 19.1172C57.86 20.1149 59.053 20.5395 60.0507 20.0656C61.0485 19.5917 61.4731 18.3987 60.9992 17.401L53.2763 1.1419ZM51.4697 136.5C53.0872 137.676 53.0879 137.675 53.0886 137.674C53.089 137.674 53.0898 137.673 53.0905 137.672C53.092 137.67 53.0937 137.667 53.0958 137.664C53.1 137.659 53.1055 137.651 53.1123 137.641C53.1259 137.622 53.1445 137.596 53.168 137.563C53.215 137.496 53.2815 137.4 53.3653 137.277C53.5328 137.029 53.7701 136.67 54.0608 136.204C54.6421 135.274 55.4384 133.919 56.3198 132.19C58.081 128.735 60.1919 123.768 61.5999 117.702C64.4237 105.536 64.4095 88.9607 53.1529 71.4198L49.7865 73.5802C60.3486 90.0389 60.3343 105.463 57.7035 116.798C56.3842 122.481 54.4041 127.14 52.7561 130.373C51.933 131.988 51.1951 133.242 50.6684 134.085C50.4052 134.506 50.195 134.824 50.0536 135.033C49.9829 135.137 49.9295 135.214 49.8953 135.263C49.8782 135.287 49.8659 135.305 49.8586 135.315C49.855 135.32 49.8526 135.323 49.8515 135.325C49.851 135.325 49.8508 135.326 49.8509 135.325C49.851 135.325 49.8513 135.325 49.8513 135.325C49.8518 135.324 49.8523 135.324 51.4697 136.5ZM53.1529 71.4198C45.4936 59.4843 45.3918 42.4906 47.3977 28.0938C48.3919 20.9584 49.8846 14.5893 51.13 10.0026C51.7522 7.71105 52.3114 5.86886 52.7137 4.60361C52.9148 3.9711 53.0765 3.48308 53.1872 3.15554C53.2425 2.99177 53.2851 2.86815 53.3133 2.78667C53.3275 2.74592 53.3381 2.71572 53.3449 2.6963C53.3483 2.68659 53.3508 2.67958 53.3523 2.6753C53.353 2.67316 53.3536 2.6717 53.3538 2.67093C53.354 2.67054 53.354 2.67047 53.3541 2.67028C53.354 2.67039 53.3539 2.67067 51.4697 2C49.5855 1.32934 49.5853 1.32996 49.585 1.33076C49.5848 1.33126 49.5845 1.33223 49.5841 1.33322C49.5834 1.33521 49.5825 1.33789 49.5813 1.34125C49.5789 1.34798 49.5756 1.35745 49.5713 1.36963C49.5627 1.394 49.5504 1.42922 49.5345 1.47505C49.5027 1.5667 49.4566 1.70079 49.3976 1.8753C49.2797 2.2243 49.1104 2.73512 48.9017 3.3917C48.4843 4.70466 47.9086 6.60175 47.2698 8.95451C45.9931 13.6565 44.4594 20.1963 43.436 27.5419C41.4066 42.107 41.3048 60.3632 49.7865 73.5802L53.1529 71.4198Z" fill="black"></path></svg> 