<?xml version="1.0" encoding="UTF-8"?> <svg xmlns="http://www.w3.org/2000/svg" width="321" height="267" viewBox="0 0 321 267" fill="none"><path d="M317.966 25.6499C279.25 -8.2262 220.874 -6.10888 177.622 17.7859C129.832 44.1003 99.586 93.7045 77.8085 142.099C62.9877 175.068 50.889 208.944 41.8151 243.727C39.3954 253.104 53.9136 257.036 56.3334 247.659C64.1975 218.32 73.8764 189.586 85.6725 161.759C95.9563 137.259 107.752 113.365 122.573 91.2848C149.19 51.6619 188.511 18.3907 237.812 15.0636C262.614 13.5513 288.324 19.6006 307.077 36.2362C310.102 38.9583 314.639 39.2608 317.663 36.2362C320.688 33.514 320.99 28.3721 317.966 25.6499Z" fill="black"></path><path d="M1.28425 203.802C14.2902 223.159 26.9938 242.82 39.6973 262.48C42.722 267.319 49.6786 267.319 52.7033 262.48C56.9378 255.826 62.3823 249.776 68.7341 244.937C75.9932 239.493 84.7647 235.863 91.7214 230.116C95.0485 227.696 94.4435 221.95 91.7214 219.53C88.6967 216.505 84.1597 217.11 81.1351 219.53C73.8759 225.277 64.802 228.906 57.5428 234.653C50.2837 240.4 44.5368 247.357 39.6973 254.918C43.9319 254.918 48.4688 254.918 52.7033 254.918C39.9998 235.258 26.9939 215.598 14.2904 196.24C9.14848 188.074 -4.16012 195.635 1.28425 203.802Z" fill="black"></path></svg> 