<?xml version="1.0" encoding="UTF-8"?> <svg xmlns="http://www.w3.org/2000/svg" width="88" height="84" viewBox="0 0 88 84" fill="none"><path d="M45.7948 2.93201H42.2985C20.5086 2.93201 2.84448 20.5962 2.84448 42.386C2.84448 64.1758 20.5086 81.84 42.2985 81.84H45.7948C67.5847 81.84 85.2488 64.1758 85.2488 42.386C85.2488 20.5962 67.5847 2.93201 45.7948 2.93201Z" stroke="#FF3F3C" stroke-width="4" stroke-miterlimit="10"></path><path fill-rule="evenodd" clip-rule="evenodd" d="M49.2507 36.855C51.1006 35.9326 53.4543 34.5749 55.8109 32.7145C56.3078 33.7464 56.3622 34.6468 56.1062 35.3739C55.9248 35.8863 55.5829 36.3319 55.1334 36.6865C54.6466 37.0697 54.0387 37.3487 53.3666 37.4995C52.0915 37.7867 50.6027 37.619 49.2507 36.855ZM49.5714 46.3059L52.0201 47.7203C47.0204 50.5226 45.6612 55.7259 44.0466 60.794C42.4322 55.7259 41.0728 50.5226 36.0732 47.7203L38.5219 46.3059C38.7588 46.2164 38.9613 46.0542 39.1003 45.8425C39.2393 45.6309 39.3078 45.3807 39.2959 45.1277C39.0716 40.3813 40.3532 38.2824 42.0819 36.9645C42.7019 36.4924 43.3788 36.2554 44.0466 36.2554C44.7144 36.2554 45.3913 36.4924 46.0115 36.9645C47.7402 38.2824 49.0218 40.3813 48.7974 45.1277C48.7855 45.3807 48.854 45.6309 48.9931 45.8425C49.1321 46.0542 49.3346 46.2164 49.5714 46.3059ZM44.0466 15.3139C46.877 15.3899 49.7146 15.9394 52.1772 17.0083C53.8825 17.7495 55.4737 18.7285 56.9145 19.8992C57.5652 20.4278 58.1009 20.9383 58.6911 21.5261C60.2829 21.5812 62.6093 19.8128 63.6893 18.1581C61.8306 24.2516 53.3489 31.4475 47.4769 34.2009C47.4745 34.1999 47.4729 34.1985 47.4711 34.1973C46.4173 33.3926 45.232 32.9903 44.0466 32.9903C42.8611 32.9903 41.6761 33.3926 40.6223 34.1973C40.6205 34.1983 40.6189 34.2001 40.6164 34.2009C34.7443 31.4475 26.2627 24.2516 24.4041 18.1581C25.4839 19.8128 27.8102 21.5812 29.402 21.5261C29.9924 20.9386 30.5282 20.4278 31.1787 19.8992C32.6195 18.7285 34.2107 17.7495 35.916 17.0083C38.3788 15.9394 41.2163 15.3899 44.0466 15.3139ZM38.8424 36.855C36.9928 35.9326 34.6388 34.5749 32.2825 32.7145C31.7856 33.7464 31.7312 34.6468 31.987 35.3739C32.1686 35.8863 32.5104 36.3319 32.9597 36.6865C33.4467 37.0697 34.0547 37.3487 34.7267 37.4995C36.0019 37.7867 37.4905 37.619 38.8424 36.855Z" fill="#FF3F3C"></path><path fill-rule="evenodd" clip-rule="evenodd" d="M58.3919 30.435C59.6892 29.1258 60.8323 27.6767 61.7515 26.3836L62.2183 27.2623C63.7212 30.2691 64.5021 33.2638 64.5021 36.6341L64.4989 41.9822L64.5271 44.7546C64.636 51.5609 66.1087 58.4472 69.4447 64.7491L62.4648 59.1208L57.5261 67.1351L52.3377 62.2508L44.0467 75.7055L35.7556 62.251L30.5674 67.1353L25.6287 59.121L18.6487 64.7493C21.9847 58.4474 23.4574 51.5611 23.5664 44.7548L23.5946 41.9824L23.5914 36.6343C23.5914 33.2638 24.3721 30.2691 25.8754 27.2625L26.3421 26.3838C27.2612 27.6769 28.4041 29.1258 29.7016 30.4352L29.2965 31.2768C28.5094 32.9113 28.2487 34.7389 28.8619 36.4771C29.2572 37.5966 29.9786 38.5567 30.9087 39.2896C31.8117 40.0014 32.8804 40.4811 33.9993 40.7331C34.7282 40.8971 35.4708 40.9647 36.2086 40.9417C36.0364 41.9175 35.9612 42.9296 35.9564 43.9608L29.3723 47.7637L34.4531 50.6117C34.8592 50.8394 35.2458 51.1002 35.6089 51.3916C39.7977 55.1525 42.3162 66.2786 44.0469 71.7132C45.7778 66.2786 48.296 55.1525 52.4851 51.3916C52.8482 51.1002 53.2347 50.8393 53.6409 50.6117L58.7217 47.7637L52.1373 43.9608C52.1325 42.9296 52.0573 41.9175 51.8852 40.9417C52.6229 40.9647 53.3655 40.8971 54.0944 40.7331C55.2133 40.4811 56.2823 40.0014 57.1851 39.2896C58.1149 38.5567 58.8366 37.5966 59.2316 36.4771C59.845 34.7389 59.5842 32.9115 58.7973 31.2768L58.3921 30.4352L58.3919 30.435Z" fill="#FF3F3C"></path></svg> 