<?xml version="1.0" encoding="UTF-8"?> <svg xmlns="http://www.w3.org/2000/svg" width="546" height="201" viewBox="0 0 546 201" fill="none"><path d="M0.469082 169.127C4.43015 128.112 32.905 92.5536 63.9177 67.4784C93.0694 44.3375 127.436 28.5207 163.739 19.8732C200.041 11.2256 238.304 9.24279 275.488 14.0339C318.953 19.6274 360.764 33.4843 400.331 52.0378C440.39 70.8673 477.952 94.3815 513.894 120.094C518.291 123.335 522.94 126.588 527.337 129.829C533.932 134.691 527.114 145.238 520.519 140.376C485.838 114.723 449.8 91.0285 411.302 71.2616C373.537 52.035 333.563 36.7484 291.958 29.2206C256.131 22.4714 218.996 21.9798 183.041 28.6217C148.119 34.8067 114.4 47.6208 84.8869 67.7113C70.2624 77.6365 57.0677 89.3986 45.5669 102.757C32.4695 117.81 21.2704 135.481 16.0648 154.698C14.8175 159.695 13.8344 164.451 13.3437 169.483C12.1936 177.77 -0.416863 177.174 0.469082 169.127Z" fill="black"></path><path d="M411.686 138.012C438.215 138.255 464.997 138.51 491.527 138.753C501.387 138.714 512.508 138.734 520.168 131.766C526.783 125.506 529.254 116.018 529.167 107.166C529.042 93.7635 522.817 81.0833 517.3 69.4477C513.851 62.207 525.006 56.1622 528.443 63.6552C538.779 85.6295 549.621 112.936 533.908 135.196C526.322 145.959 514.746 150.214 502.064 151.132C488.613 152.265 474.754 151.357 461.11 151.218C444.429 151.187 428.011 150.917 411.33 150.887C403.007 150.493 403.603 137.883 411.686 138.012Z" fill="black"></path></svg> 