<?xml version="1.0" encoding="UTF-8"?> <svg xmlns="http://www.w3.org/2000/svg" width="322" height="176" viewBox="0 0 322 176" fill="none"><path d="M35.6968 73.9169C86.4145 73.9169 137.132 73.9169 188.138 73.9169C202.547 73.9169 217.243 73.9169 231.652 73.9169C240.873 73.9169 240.873 59.5085 231.652 59.5085C180.934 59.5085 130.216 59.5085 79.2103 59.5085C64.8019 59.5085 50.1053 59.5085 35.6968 59.5085C26.4754 59.5085 26.4754 73.9169 35.6968 73.9169Z" fill="black"></path><path d="M6.88045 112.82C66.2432 113.684 125.318 112.532 184.681 109.938C201.394 109.074 218.108 108.497 234.822 107.344C244.043 106.768 244.043 92.3597 234.822 92.936C175.747 96.3941 116.385 98.4113 57.31 98.4113C40.5962 98.4113 23.8824 98.4112 7.16861 98.123C-2.34096 98.123 -2.34095 112.532 6.88045 112.82Z" fill="black"></path><path d="M197.072 13.6896C226.753 32.1324 255.57 52.016 283.523 73.0523C290.15 77.9512 297.067 82.8502 303.406 88.3254C305.135 89.7662 308.017 92.0715 307.729 94.3769C307.729 93.5124 308.017 94.0887 307.441 94.3769C306.864 94.665 306.576 95.2414 306 95.5296C304.271 96.9705 302.254 97.8348 300.525 98.9875C284.963 108.785 269.402 118.871 253.553 128.669C235.975 139.908 218.396 151.146 200.53 162.097C192.749 166.995 199.954 179.387 207.734 174.488C241.45 153.163 275.166 131.839 308.593 110.514C316.374 105.615 323.866 99.2758 320.985 89.1899C318.391 80.2566 309.17 74.7815 302.254 69.5944C287.557 58.3558 272.572 47.1172 257.299 36.455C239.721 24.3519 222.143 12.5368 203.988 1.01009C196.496 -3.60061 189.291 8.79072 197.072 13.6896Z" fill="black"></path></svg> 